%FSTAX24Y24*%
%MOIN*%
%SFA1B1*%

%IPPOS*%
%ADD50C,0.002000*%
%ADD51C,0.002700*%
%ADD52C,0.001300*%
%LNpcb1-1*%
%LPD*%
G54D50*
X03592Y020786D02*
Y020946D01*
X03608*
Y020786*
X03592*
X01685Y00482D02*
X01677Y00498D01*
X01693*
X01685Y00482*
X018819D02*
X018738Y00498D01*
X018899*
X018819Y00482*
X020787D02*
X020707Y00498D01*
X020867*
X020787Y00482*
X023139Y00417D02*
X023179Y00421D01*
X023219*
X023179Y00425*
X023219Y00429*
X023179*
X023139Y00433*
X023099Y00429*
X023059*
X023099Y00425*
X023059Y00421*
X023099*
X023139Y00417*
Y002201D02*
X023179Y002242D01*
X023219*
X023179Y002281*
X023219Y002322*
X023179*
X023139Y002361*
X023099Y002322*
X023059*
X023099Y002281*
X023059Y002242*
X023099*
X023139Y002201*
X02027Y00907D02*
X02031Y00915D01*
X02027Y00923*
X02035Y00919*
X02043Y00923*
X02039Y00915*
X02043Y00907*
X02035Y00911*
X02027Y00907*
X01727D02*
X01731Y00915D01*
X01727Y00923*
X01735Y00919*
X01743Y00923*
X01739Y00915*
X01743Y00907*
X01735Y00911*
X01727Y00907*
X03425Y00872D02*
X03429Y00876D01*
X03433*
X03429Y0088*
X03433Y00884*
X03429*
X03425Y00888*
X03421Y00884*
X03417*
X03421Y0088*
X03417Y00876*
X03421*
X03425Y00872*
Y00972D02*
X03429Y00976D01*
X03433*
X03429Y0098*
X03433Y00984*
X03429*
X03425Y00988*
X03421Y00984*
X03417*
X03421Y0098*
X03417Y00976*
X03421*
X03425Y00972*
X03125Y00877D02*
X03129Y00881D01*
X03133*
X03129Y00885*
X03133Y00889*
X03129*
X03125Y00893*
X03121Y00889*
X03117*
X03121Y00885*
X03117Y00881*
X03121*
X03125Y00877*
Y00977D02*
X03129Y00981D01*
X03133*
X03129Y00985*
X03133Y00989*
X03129*
X03125Y00993*
X03121Y00989*
X03117*
X03121Y00985*
X03117Y00981*
X03121*
X03125Y00977*
X0328Y00872D02*
X03284Y00876D01*
X03288*
X03284Y0088*
X03288Y00884*
X03284*
X0328Y00888*
X03276Y00884*
X03272*
X03276Y0088*
X03272Y00876*
X03276*
X0328Y00872*
Y00972D02*
X03284Y00976D01*
X03288*
X03284Y0098*
X03288Y00984*
X03284*
X0328Y00988*
X03276Y00984*
X03272*
X03276Y0098*
X03272Y00976*
X03276*
X0328Y00972*
X03335Y01172D02*
X03339Y01176D01*
X03343*
X03339Y0118*
X03343Y01184*
X03339*
X03335Y01188*
X03331Y01184*
X03327*
X03331Y0118*
X03327Y01176*
X03331*
X03335Y01172*
X035319D02*
X035359Y01176D01*
X035398*
X035359Y0118*
X035398Y01184*
X035359*
X035319Y01188*
X035278Y01184*
X035238*
X035278Y0118*
X035238Y01176*
X035278*
X035319Y01172*
X0325Y01352D02*
X03254Y01356D01*
X03258*
X03254Y0136*
X03258Y01364*
X03254*
X0325Y01368*
X03246Y01364*
X03242*
X03246Y0136*
X03242Y01356*
X03246*
X0325Y01352*
X034469D02*
X034509Y01356D01*
X034548*
X034509Y0136*
X034548Y01364*
X034509*
X034469Y01368*
X034429Y01364*
X034388*
X034429Y0136*
X034388Y01356*
X034429*
X034469Y01352*
X03135Y01152D02*
X03139Y01156D01*
X03143*
X03139Y0116*
X03143Y01164*
X03139*
X03135Y01168*
X03131Y01164*
X03127*
X03131Y0116*
X03127Y01156*
X03131*
X03135Y01152*
Y013489D02*
X03139Y013528D01*
X03143*
X03139Y013569*
X03143Y013608*
X03139*
X03135Y013649*
X03131Y013608*
X03127*
X03131Y013569*
X03127Y013528*
X03131*
X03135Y013489*
X030041Y00536D02*
Y00532D01*
X030122*
Y00536*
X030161*
Y00544*
X030122*
Y00548*
X030041*
Y00544*
X030001*
Y00536*
X030041*
Y00236D02*
Y00232D01*
X030122*
Y00236*
X030161*
Y00244*
X030122*
Y00248*
X030041*
Y00244*
X030001*
Y00236*
X030041*
X036291Y00531D02*
Y00527D01*
X036372*
Y00531*
X036411*
Y00539*
X036372*
Y00543*
X036291*
Y00539*
X036251*
Y00531*
X036291*
Y00231D02*
Y00227D01*
X036372*
Y00231*
X036411*
Y00239*
X036372*
Y00243*
X036291*
Y00239*
X036251*
Y00231*
X036291*
X03562Y01752D02*
X03566D01*
X0357Y01756*
X03574Y01752*
X03578*
Y01756*
X03574Y0176*
X03578Y01764*
Y01768*
X03574*
X0357Y01764*
X03566Y01768*
X03562*
Y01764*
X03566Y0176*
X03562Y01756*
Y01752*
Y01852D02*
X03566D01*
X0357Y01856*
X03574Y01852*
X03578*
Y01856*
X03574Y0186*
X03578Y01864*
Y01868*
X03574*
X0357Y01864*
X03566Y01868*
X03562*
Y01864*
X03566Y0186*
X03562Y01856*
Y01852*
X03627Y01325D02*
X03635Y01333D01*
X03643Y01325*
X03635Y01317*
X03627Y01325*
Y01625D02*
X03635Y01633D01*
X03643Y01625*
X03635Y01617*
X03627Y01625*
X035229Y01582D02*
X035269Y0159D01*
X035229Y01598*
X035309Y01594*
X035389Y01598*
X035349Y0159*
X035389Y01582*
X035309Y01586*
X035229Y01582*
X031111D02*
X031151Y0159D01*
X031111Y01598*
X031191Y01594*
X031271Y01598*
X031231Y0159*
X031271Y01582*
X031191Y01586*
X031111Y01582*
X03022Y01477D02*
Y01493D01*
X03038*
Y01477*
X03022*
X03026Y01481D02*
Y01489D01*
X03034*
Y01481*
X03026*
X03022Y01577D02*
Y01593D01*
X03038*
Y01577*
X03022*
X03026Y01581D02*
Y01589D01*
X03034*
Y01581*
X03026*
X02722Y01477D02*
Y01493D01*
X02738*
Y01477*
X02722*
X02726Y01481D02*
Y01489D01*
X02734*
Y01481*
X02726*
X02722Y01577D02*
Y01593D01*
X02738*
Y01577*
X02722*
X02726Y01581D02*
Y01589D01*
X02734*
Y01581*
X02726*
X0185Y017988D02*
X01842Y018148D01*
X01858*
X0185Y017988*
Y018028D02*
X01846Y018108D01*
X01854*
X0185Y018028*
Y018929D02*
X01842Y019089D01*
X01858*
X0185Y018929*
Y018969D02*
X01846Y019049D01*
X01854*
X0185Y018969*
Y01987D02*
X01842Y02003D01*
X01858*
X0185Y01987*
Y01991D02*
X01846Y01999D01*
X01854*
X0185Y01991*
X01517Y0197D02*
X01525Y01978D01*
X01533Y0197*
X01525Y01962*
X01517Y0197*
Y0227D02*
X01525Y02278D01*
X01533Y0227*
X01525Y02262*
X01517Y0227*
X01642Y01735D02*
X0165Y01743D01*
X01658Y01735*
X0165Y01727*
X01642Y01735*
Y02035D02*
X0165Y02043D01*
X01658Y02035*
X0165Y02027*
X01642Y02035*
X02027Y01687D02*
X02031Y01695D01*
X02027Y01703*
X02035Y01699*
X02043Y01703*
X02039Y01695*
X02043Y01687*
X02035Y01691*
X02027Y01687*
Y020988D02*
X02031Y021068D01*
X02027Y021148*
X02035Y021108*
X02043Y021148*
X02039Y021068*
X02043Y020988*
X02035Y021028*
X02027Y020988*
X01732Y0192D02*
X0174Y01928D01*
X01748Y0192*
X0174Y01912*
X01732Y0192*
Y0162D02*
X0174Y01628D01*
X01748Y0162*
X0174Y01612*
X01732Y0162*
X01387Y02045D02*
X01395Y02053D01*
X01403Y02045*
X01395Y02037*
X01387Y02045*
Y02345D02*
X01395Y02353D01*
X01403Y02345*
X01395Y02337*
X01387Y02345*
X007704Y02372D02*
Y02388D01*
X007864*
Y02372*
X007704*
X01407Y01912D02*
Y01928D01*
X01423*
Y01912*
X01407*
X01411Y01916D02*
Y01924D01*
X01419*
Y01916*
X01411*
X01407Y01862D02*
Y01878D01*
X01423*
Y01862*
X01407*
X01411Y01866D02*
Y01874D01*
X01419*
Y01866*
X01411*
X01407Y01812D02*
Y01828D01*
X01423*
Y01812*
X01407*
X01411Y01816D02*
Y01824D01*
X01419*
Y01816*
X01411*
X0096Y016844D02*
X00964Y016884D01*
X00968*
X00964Y016924*
X00968Y016964*
X00964*
X0096Y017004*
X00956Y016964*
X00952*
X00956Y016924*
X00952Y016884*
X00956*
X0096Y016844*
Y019796D02*
X00964Y019836D01*
X00968*
X00964Y019876*
X00968Y019916*
X00964*
X0096Y019956*
X00956Y019916*
X00952*
X00956Y019876*
X00952Y019836*
X00956*
X0096Y019796*
X001411Y020694D02*
X001451Y020774D01*
X001411Y020854*
X001491Y020814*
X001571Y020854*
X001531Y020774*
X001571Y020694*
X001491Y020734*
X001411Y020694*
X005529D02*
X005569Y020774D01*
X005529Y020854*
X005609Y020814*
X005689Y020854*
X005649Y020774*
X005689Y020694*
X005609Y020734*
X005529Y020694*
X001411Y019044D02*
X001451Y019124D01*
X001411Y019204*
X001491Y019164*
X001571Y019204*
X001531Y019124*
X001571Y019044*
X001491Y019084*
X001411Y019044*
X005529D02*
X005569Y019124D01*
X005529Y019204*
X005609Y019164*
X005689Y019204*
X005649Y019124*
X005689Y019044*
X005609Y019084*
X005529Y019044*
Y015644D02*
X005569Y015724D01*
X005529Y015804*
X005609Y015764*
X005689Y015804*
X005649Y015724*
X005689Y015644*
X005609Y015684*
X005529Y015644*
X001411D02*
X001451Y015724D01*
X001411Y015804*
X001491Y015764*
X001571Y015804*
X001531Y015724*
X001571Y015644*
X001491Y015684*
X001411Y015644*
X005529Y017394D02*
X005569Y017474D01*
X005529Y017554*
X005609Y017514*
X005689Y017554*
X005649Y017474*
X005689Y017394*
X005609Y017434*
X005529Y017394*
X001411D02*
X001451Y017474D01*
X001411Y017554*
X001491Y017514*
X001571Y017554*
X001531Y017474*
X001571Y017394*
X001491Y017434*
X001411Y017394*
X0241Y00907D02*
X02414Y00911D01*
X02418*
X02414Y00915*
X02418Y00919*
X02414*
X0241Y00923*
X02406Y00919*
X02402*
X02406Y00915*
X02402Y00911*
X02406*
X0241Y00907*
Y00911D02*
X02412Y00913D01*
X02414*
X02412Y00915*
X02414Y00917*
X02412*
X0241Y00919*
X02408Y00917*
X02406*
X02408Y00915*
X02406Y00913*
X02408*
X0241Y00911*
Y008381D02*
X02414Y008421D01*
X02418*
X02414Y008461*
X02418Y008501*
X02414*
X0241Y008541*
X02406Y008501*
X02402*
X02406Y008461*
X02402Y008421*
X02406*
X0241Y008381*
Y008421D02*
X02412Y008441D01*
X02414*
X02412Y008461*
X02414Y008481*
X02412*
X0241Y008501*
X02408Y008481*
X02406*
X02408Y008461*
X02406Y008441*
X02408*
X0241Y008421*
Y007692D02*
X02414Y007732D01*
X02418*
X02414Y007772*
X02418Y007812*
X02414*
X0241Y007852*
X02406Y007812*
X02402*
X02406Y007772*
X02402Y007732*
X02406*
X0241Y007692*
Y007732D02*
X02412Y007752D01*
X02414*
X02412Y007772*
X02414Y007792*
X02412*
X0241Y007812*
X02408Y007792*
X02406*
X02408Y007772*
X02406Y007752*
X02408*
X0241Y007732*
Y007003D02*
X02414Y007043D01*
X02418*
X02414Y007083*
X02418Y007123*
X02414*
X0241Y007163*
X02406Y007123*
X02402*
X02406Y007083*
X02402Y007043*
X02406*
X0241Y007003*
Y007043D02*
X02412Y007063D01*
X02414*
X02412Y007083*
X02414Y007103*
X02412*
X0241Y007123*
X02408Y007103*
X02406*
X02408Y007083*
X02406Y007063*
X02408*
X0241Y007043*
Y006314D02*
X02414Y006354D01*
X02418*
X02414Y006394*
X02418Y006434*
X02414*
X0241Y006474*
X02406Y006434*
X02402*
X02406Y006394*
X02402Y006354*
X02406*
X0241Y006314*
Y006354D02*
X02412Y006374D01*
X02414*
X02412Y006394*
X02414Y006414*
X02412*
X0241Y006434*
X02408Y006414*
X02406*
X02408Y006394*
X02406Y006374*
X02408*
X0241Y006354*
X002559Y010904D02*
X002479Y011064D01*
X002639*
X002559Y010904*
Y008936D02*
X002479Y009096D01*
X002639*
X002559Y008936*
X011589Y00907D02*
X011629Y00911D01*
X011669*
X011629Y00915*
X011669Y00919*
X011629*
X011589Y00923*
X011549Y00919*
X011509*
X011549Y00915*
X011509Y00911*
X011549*
X011589Y00907*
X010211D02*
X010251Y00911D01*
X010291*
X010251Y00915*
X010291Y00919*
X010251*
X010211Y00923*
X010171Y00919*
X010131*
X010171Y00915*
X010131Y00911*
X010171*
X010211Y00907*
X0264Y00682D02*
X02644Y00686D01*
X02648*
X02644Y0069*
X02648Y00694*
X02644*
X0264Y00698*
X02636Y00694*
X02632*
X02636Y0069*
X02632Y00686*
X02636*
X0264Y00682*
Y00782D02*
X02644Y00786D01*
X02648*
X02644Y0079*
X02648Y00794*
X02644*
X0264Y00798*
X02636Y00794*
X02632*
X02636Y0079*
X02632Y00786*
X02636*
X0264Y00782*
Y00882D02*
X02644Y00886D01*
X02648*
X02644Y0089*
X02648Y00894*
X02644*
X0264Y00898*
X02636Y00894*
X02632*
X02636Y0089*
X02632Y00886*
X02636*
X0264Y00882*
X031842Y017903D02*
X031882Y017983D01*
X031842Y018063*
X031922Y018023*
X032002Y018063*
X031962Y017983*
X032002Y017903*
X031922Y017943*
X031842Y017903*
Y019281D02*
X031882Y019361D01*
X031842Y019441*
X031922Y019401*
X032002Y019441*
X031962Y019361*
X032002Y019281*
X031922Y019321*
X031842Y019281*
Y020659D02*
X031882Y020739D01*
X031842Y020819*
X031922Y020779*
X032002Y020819*
X031962Y020739*
X032002Y020659*
X031922Y020699*
X031842Y020659*
Y022037D02*
X031882Y022117D01*
X031842Y022197*
X031922Y022157*
X032002Y022197*
X031962Y022117*
X032002Y022037*
X031922Y022077*
X031842Y022037*
X025798Y017828D02*
X025838Y017908D01*
X025798Y017988*
X025878Y017948*
X025958Y017988*
X025918Y017908*
X025958Y017828*
X025878Y017868*
X025798Y017828*
Y018899D02*
X025838Y018979D01*
X025798Y019059*
X025878Y019019*
X025958Y019059*
X025918Y018979*
X025958Y018899*
X025878Y018939*
X025798Y018899*
Y01997D02*
X025838Y02005D01*
X025798Y02013*
X025878Y02009*
X025958Y02013*
X025918Y02005*
X025958Y01997*
X025878Y02001*
X025798Y01997*
Y021041D02*
X025838Y021121D01*
X025798Y021201*
X025878Y021161*
X025958Y021201*
X025918Y021121*
X025958Y021041*
X025878Y021081*
X025798Y021041*
Y022112D02*
X025838Y022192D01*
X025798Y022272*
X025878Y022232*
X025958Y022272*
X025918Y022192*
X025958Y022112*
X025878Y022152*
X025798Y022112*
G54D51*
X03608Y022834D02*
D01*
X036079Y022839*
X036079Y022845*
X036078Y02285*
X036076Y022856*
X036075Y022861*
X036073Y022866*
X03607Y022871*
X036067Y022876*
X036064Y022881*
X036061Y022885*
X036057Y022889*
X036053Y022893*
X036049Y022897*
X036044Y0229*
X03604Y022903*
X036035Y022905*
X036029Y022908*
X036024Y02291*
X036019Y022911*
X036013Y022912*
X036008Y022913*
X036002Y022913*
X035997*
X035991Y022913*
X035986Y022912*
X03598Y022911*
X035975Y02291*
X03597Y022908*
X035964Y022905*
X03596Y022903*
X035955Y0229*
X03595Y022897*
X035946Y022893*
X035942Y022889*
X035938Y022885*
X035935Y022881*
X035932Y022876*
X035929Y022871*
X035926Y022866*
X035924Y022861*
X035923Y022856*
X035921Y02285*
X03592Y022845*
X03592Y022839*
X03592Y022834*
X03592Y022828*
X03592Y022822*
X035921Y022817*
X035923Y022811*
X035924Y022806*
X035926Y022801*
X035929Y022796*
X035932Y022791*
X035935Y022786*
X035938Y022782*
X035942Y022778*
X035946Y022774*
X03595Y02277*
X035955Y022767*
X03596Y022764*
X035964Y022762*
X03597Y022759*
X035975Y022757*
X03598Y022756*
X035986Y022755*
X035991Y022754*
X035997Y022754*
X036002*
X036008Y022754*
X036013Y022755*
X036019Y022756*
X036024Y022757*
X036029Y022759*
X036035Y022762*
X03604Y022764*
X036044Y022767*
X036049Y02277*
X036053Y022774*
X036057Y022778*
X036061Y022782*
X036064Y022786*
X036067Y022791*
X03607Y022796*
X036073Y022801*
X036075Y022806*
X036076Y022811*
X036078Y022817*
X036079Y022822*
X036079Y022828*
X03608Y022834*
X029469Y01245D02*
D01*
X029468Y012455*
X029468Y012461*
X029467Y012466*
X029465Y012472*
X029464Y012477*
X029462Y012482*
X029459Y012487*
X029456Y012492*
X029453Y012497*
X02945Y012501*
X029446Y012505*
X029442Y012509*
X029438Y012513*
X029433Y012516*
X029429Y012519*
X029424Y012521*
X029418Y012524*
X029413Y012526*
X029408Y012527*
X029402Y012528*
X029397Y012529*
X029391Y012529*
X029386*
X02938Y012529*
X029375Y012528*
X029369Y012527*
X029364Y012526*
X029359Y012524*
X029353Y012521*
X029349Y012519*
X029344Y012516*
X029339Y012513*
X029335Y012509*
X029331Y012505*
X029327Y012501*
X029324Y012497*
X029321Y012492*
X029318Y012487*
X029315Y012482*
X029313Y012477*
X029312Y012472*
X02931Y012466*
X029309Y012461*
X029309Y012455*
X029309Y01245*
X029309Y012444*
X029309Y012438*
X02931Y012433*
X029312Y012427*
X029313Y012422*
X029315Y012417*
X029318Y012412*
X029321Y012407*
X029324Y012402*
X029327Y012398*
X029331Y012394*
X029335Y01239*
X029339Y012386*
X029344Y012383*
X029349Y01238*
X029353Y012378*
X029359Y012375*
X029364Y012373*
X029369Y012372*
X029375Y012371*
X02938Y01237*
X029386Y01237*
X029391*
X029397Y01237*
X029402Y012371*
X029408Y012372*
X029413Y012373*
X029418Y012375*
X029424Y012378*
X029429Y01238*
X029433Y012383*
X029438Y012386*
X029442Y01239*
X029446Y012394*
X02945Y012398*
X029453Y012402*
X029456Y012407*
X029459Y012412*
X029462Y012417*
X029464Y012422*
X029465Y012427*
X029467Y012433*
X029468Y012438*
X029468Y012444*
X029469Y01245*
X028091D02*
D01*
X02809Y012455*
X02809Y012461*
X028089Y012466*
X028087Y012472*
X028086Y012477*
X028084Y012482*
X028081Y012487*
X028078Y012492*
X028075Y012497*
X028072Y012501*
X028068Y012505*
X028064Y012509*
X02806Y012513*
X028055Y012516*
X028051Y012519*
X028046Y012521*
X02804Y012524*
X028035Y012526*
X02803Y012527*
X028024Y012528*
X028019Y012529*
X028013Y012529*
X028008*
X028002Y012529*
X027997Y012528*
X027991Y012527*
X027986Y012526*
X027981Y012524*
X027975Y012521*
X027971Y012519*
X027966Y012516*
X027961Y012513*
X027957Y012509*
X027953Y012505*
X027949Y012501*
X027946Y012497*
X027943Y012492*
X02794Y012487*
X027937Y012482*
X027935Y012477*
X027934Y012472*
X027932Y012466*
X027931Y012461*
X027931Y012455*
X027931Y01245*
X027931Y012444*
X027931Y012438*
X027932Y012433*
X027934Y012427*
X027935Y012422*
X027937Y012417*
X02794Y012412*
X027943Y012407*
X027946Y012402*
X027949Y012398*
X027953Y012394*
X027957Y01239*
X027961Y012386*
X027966Y012383*
X027971Y01238*
X027975Y012378*
X027981Y012375*
X027986Y012373*
X027991Y012372*
X027997Y012371*
X028002Y01237*
X028008Y01237*
X028013*
X028019Y01237*
X028024Y012371*
X02803Y012372*
X028035Y012373*
X02804Y012375*
X028046Y012378*
X028051Y01238*
X028055Y012383*
X02806Y012386*
X028064Y01239*
X028068Y012394*
X028072Y012398*
X028075Y012402*
X028078Y012407*
X028081Y012412*
X028084Y012417*
X028086Y012422*
X028087Y012427*
X028089Y012433*
X02809Y012438*
X02809Y012444*
X028091Y01245*
X02283Y017311D02*
D01*
X022829Y017316*
X022829Y017322*
X022828Y017327*
X022826Y017333*
X022825Y017338*
X022823Y017343*
X02282Y017348*
X022817Y017353*
X022814Y017358*
X022811Y017362*
X022807Y017366*
X022803Y01737*
X022799Y017374*
X022794Y017377*
X02279Y01738*
X022785Y017382*
X022779Y017385*
X022774Y017387*
X022769Y017388*
X022763Y017389*
X022758Y01739*
X022752Y01739*
X022747*
X022741Y01739*
X022736Y017389*
X02273Y017388*
X022725Y017387*
X02272Y017385*
X022714Y017382*
X02271Y01738*
X022705Y017377*
X0227Y017374*
X022696Y01737*
X022692Y017366*
X022688Y017362*
X022685Y017358*
X022682Y017353*
X022679Y017348*
X022676Y017343*
X022674Y017338*
X022673Y017333*
X022671Y017327*
X02267Y017322*
X02267Y017316*
X02267Y017311*
X02267Y017305*
X02267Y017299*
X022671Y017294*
X022673Y017288*
X022674Y017283*
X022676Y017278*
X022679Y017273*
X022682Y017268*
X022685Y017263*
X022688Y017259*
X022692Y017255*
X022696Y017251*
X0227Y017247*
X022705Y017244*
X02271Y017241*
X022714Y017239*
X02272Y017236*
X022725Y017234*
X02273Y017233*
X022736Y017232*
X022741Y017231*
X022747Y017231*
X022752*
X022758Y017231*
X022763Y017232*
X022769Y017233*
X022774Y017234*
X022779Y017236*
X022785Y017239*
X02279Y017241*
X022794Y017244*
X022799Y017247*
X022803Y017251*
X022807Y017255*
X022811Y017259*
X022814Y017263*
X022817Y017268*
X02282Y017273*
X022823Y017278*
X022825Y017283*
X022826Y017288*
X022828Y017294*
X022829Y017299*
X022829Y017305*
X02283Y017311*
Y018689D02*
D01*
X022829Y018694*
X022829Y0187*
X022828Y018705*
X022826Y018711*
X022825Y018716*
X022823Y018721*
X02282Y018726*
X022817Y018731*
X022814Y018736*
X022811Y01874*
X022807Y018744*
X022803Y018748*
X022799Y018752*
X022794Y018755*
X02279Y018758*
X022785Y01876*
X022779Y018763*
X022774Y018765*
X022769Y018766*
X022763Y018767*
X022758Y018768*
X022752Y018768*
X022747*
X022741Y018768*
X022736Y018767*
X02273Y018766*
X022725Y018765*
X02272Y018763*
X022714Y01876*
X02271Y018758*
X022705Y018755*
X0227Y018752*
X022696Y018748*
X022692Y018744*
X022688Y01874*
X022685Y018736*
X022682Y018731*
X022679Y018726*
X022676Y018721*
X022674Y018716*
X022673Y018711*
X022671Y018705*
X02267Y0187*
X02267Y018694*
X02267Y018689*
X02267Y018683*
X02267Y018677*
X022671Y018672*
X022673Y018666*
X022674Y018661*
X022676Y018656*
X022679Y018651*
X022682Y018646*
X022685Y018641*
X022688Y018637*
X022692Y018633*
X022696Y018629*
X0227Y018625*
X022705Y018622*
X02271Y018619*
X022714Y018617*
X02272Y018614*
X022725Y018612*
X02273Y018611*
X022736Y01861*
X022741Y018609*
X022747Y018609*
X022752*
X022758Y018609*
X022763Y01861*
X022769Y018611*
X022774Y018612*
X022779Y018614*
X022785Y018617*
X02279Y018619*
X022794Y018622*
X022799Y018625*
X022803Y018629*
X022807Y018633*
X022811Y018637*
X022814Y018641*
X022817Y018646*
X02282Y018651*
X022823Y018656*
X022825Y018661*
X022826Y018666*
X022828Y018672*
X022829Y018677*
X022829Y018683*
X02283Y018689*
X016891Y02255D02*
D01*
X01689Y022555*
X01689Y022561*
X016889Y022566*
X016887Y022572*
X016886Y022577*
X016884Y022582*
X016881Y022587*
X016878Y022592*
X016875Y022597*
X016872Y022601*
X016868Y022605*
X016864Y022609*
X01686Y022613*
X016855Y022616*
X016851Y022619*
X016846Y022621*
X01684Y022624*
X016835Y022626*
X01683Y022627*
X016824Y022628*
X016819Y022629*
X016813Y022629*
X016808*
X016802Y022629*
X016797Y022628*
X016791Y022627*
X016786Y022626*
X016781Y022624*
X016775Y022621*
X016771Y022619*
X016766Y022616*
X016761Y022613*
X016757Y022609*
X016753Y022605*
X016749Y022601*
X016746Y022597*
X016743Y022592*
X01674Y022587*
X016737Y022582*
X016735Y022577*
X016734Y022572*
X016732Y022566*
X016731Y022561*
X016731Y022555*
X016731Y02255*
X016731Y022544*
X016731Y022538*
X016732Y022533*
X016734Y022527*
X016735Y022522*
X016737Y022517*
X01674Y022512*
X016743Y022507*
X016746Y022502*
X016749Y022498*
X016753Y022494*
X016757Y02249*
X016761Y022486*
X016766Y022483*
X016771Y02248*
X016775Y022478*
X016781Y022475*
X016786Y022473*
X016791Y022472*
X016797Y022471*
X016802Y02247*
X016808Y02247*
X016813*
X016819Y02247*
X016824Y022471*
X01683Y022472*
X016835Y022473*
X01684Y022475*
X016846Y022478*
X016851Y02248*
X016855Y022483*
X01686Y022486*
X016864Y02249*
X016868Y022494*
X016872Y022498*
X016875Y022502*
X016878Y022507*
X016881Y022512*
X016884Y022517*
X016886Y022522*
X016887Y022527*
X016889Y022533*
X01689Y022538*
X01689Y022544*
X016891Y02255*
X018269D02*
D01*
X018268Y022555*
X018268Y022561*
X018267Y022566*
X018265Y022572*
X018264Y022577*
X018262Y022582*
X018259Y022587*
X018256Y022592*
X018253Y022597*
X01825Y022601*
X018246Y022605*
X018242Y022609*
X018238Y022613*
X018233Y022616*
X018229Y022619*
X018224Y022621*
X018218Y022624*
X018213Y022626*
X018208Y022627*
X018202Y022628*
X018197Y022629*
X018191Y022629*
X018186*
X01818Y022629*
X018175Y022628*
X018169Y022627*
X018164Y022626*
X018159Y022624*
X018153Y022621*
X018149Y022619*
X018144Y022616*
X018139Y022613*
X018135Y022609*
X018131Y022605*
X018127Y022601*
X018124Y022597*
X018121Y022592*
X018118Y022587*
X018115Y022582*
X018113Y022577*
X018112Y022572*
X01811Y022566*
X018109Y022561*
X018109Y022555*
X018109Y02255*
X018109Y022544*
X018109Y022538*
X01811Y022533*
X018112Y022527*
X018113Y022522*
X018115Y022517*
X018118Y022512*
X018121Y022507*
X018124Y022502*
X018127Y022498*
X018131Y022494*
X018135Y02249*
X018139Y022486*
X018144Y022483*
X018149Y02248*
X018153Y022478*
X018159Y022475*
X018164Y022473*
X018169Y022472*
X018175Y022471*
X01818Y02247*
X018186Y02247*
X018191*
X018197Y02247*
X018202Y022471*
X018208Y022472*
X018213Y022473*
X018218Y022475*
X018224Y022478*
X018229Y02248*
X018233Y022483*
X018238Y022486*
X018242Y02249*
X018246Y022494*
X01825Y022498*
X018253Y022502*
X018256Y022507*
X018259Y022512*
X018262Y022517*
X018264Y022522*
X018265Y022527*
X018267Y022533*
X018268Y022538*
X018268Y022544*
X018269Y02255*
X005896Y0238D02*
D01*
X005895Y023805*
X005895Y023811*
X005894Y023816*
X005892Y023822*
X005891Y023827*
X005889Y023832*
X005886Y023837*
X005883Y023842*
X00588Y023847*
X005877Y023851*
X005873Y023855*
X005869Y023859*
X005865Y023863*
X00586Y023866*
X005856Y023869*
X005851Y023871*
X005845Y023874*
X00584Y023876*
X005835Y023877*
X005829Y023878*
X005824Y023879*
X005818Y023879*
X005813*
X005807Y023879*
X005802Y023878*
X005796Y023877*
X005791Y023876*
X005786Y023874*
X00578Y023871*
X005776Y023869*
X005771Y023866*
X005766Y023863*
X005762Y023859*
X005758Y023855*
X005754Y023851*
X005751Y023847*
X005748Y023842*
X005745Y023837*
X005742Y023832*
X00574Y023827*
X005739Y023822*
X005737Y023816*
X005736Y023811*
X005736Y023805*
X005736Y0238*
X005736Y023794*
X005736Y023788*
X005737Y023783*
X005739Y023777*
X00574Y023772*
X005742Y023767*
X005745Y023762*
X005748Y023757*
X005751Y023752*
X005754Y023748*
X005758Y023744*
X005762Y02374*
X005766Y023736*
X005771Y023733*
X005776Y02373*
X00578Y023728*
X005786Y023725*
X005791Y023723*
X005796Y023722*
X005802Y023721*
X005807Y02372*
X005813Y02372*
X005818*
X005824Y02372*
X005829Y023721*
X005835Y023722*
X00584Y023723*
X005845Y023725*
X005851Y023728*
X005856Y02373*
X00586Y023733*
X005865Y023736*
X005869Y02374*
X005873Y023744*
X005877Y023748*
X00588Y023752*
X005883Y023757*
X005886Y023762*
X005889Y023767*
X005891Y023772*
X005892Y023777*
X005894Y023783*
X005895Y023788*
X005895Y023794*
X005896Y0238*
G54D52*
X029429Y01245D02*
D01*
X029428Y012452*
X029428Y012455*
X029428Y012458*
X029427Y012461*
X029426Y012463*
X029425Y012466*
X029424Y012468*
X029422Y012471*
X029421Y012473*
X029419Y012475*
X029417Y012477*
X029415Y012479*
X029413Y012481*
X029411Y012483*
X029409Y012484*
X029406Y012485*
X029403Y012487*
X029401Y012488*
X029398Y012488*
X029395Y012489*
X029393Y012489*
X02939Y012489*
X029387*
X029384Y012489*
X029382Y012489*
X029379Y012488*
X029376Y012488*
X029374Y012487*
X029371Y012485*
X029369Y012484*
X029366Y012483*
X029364Y012481*
X029362Y012479*
X02936Y012477*
X029358Y012475*
X029356Y012473*
X029355Y012471*
X029353Y012468*
X029352Y012466*
X029351Y012463*
X02935Y012461*
X029349Y012458*
X029349Y012455*
X029349Y012452*
X029349Y01245*
X029349Y012447*
X029349Y012444*
X029349Y012441*
X02935Y012438*
X029351Y012436*
X029352Y012433*
X029353Y012431*
X029355Y012428*
X029356Y012426*
X029358Y012424*
X02936Y012422*
X029362Y01242*
X029364Y012418*
X029366Y012416*
X029369Y012415*
X029371Y012414*
X029374Y012412*
X029376Y012411*
X029379Y012411*
X029382Y01241*
X029384Y01241*
X029387Y01241*
X02939*
X029393Y01241*
X029395Y01241*
X029398Y012411*
X029401Y012411*
X029403Y012412*
X029406Y012414*
X029409Y012415*
X029411Y012416*
X029413Y012418*
X029415Y01242*
X029417Y012422*
X029419Y012424*
X029421Y012426*
X029422Y012428*
X029424Y012431*
X029425Y012433*
X029426Y012436*
X029427Y012438*
X029428Y012441*
X029428Y012444*
X029428Y012447*
X029429Y01245*
X028051D02*
D01*
X02805Y012452*
X02805Y012455*
X02805Y012458*
X028049Y012461*
X028048Y012463*
X028047Y012466*
X028046Y012468*
X028044Y012471*
X028043Y012473*
X028041Y012475*
X028039Y012477*
X028037Y012479*
X028035Y012481*
X028033Y012483*
X028031Y012484*
X028028Y012485*
X028025Y012487*
X028023Y012488*
X02802Y012488*
X028017Y012489*
X028015Y012489*
X028012Y012489*
X028009*
X028006Y012489*
X028004Y012489*
X028001Y012488*
X027998Y012488*
X027996Y012487*
X027993Y012485*
X027991Y012484*
X027988Y012483*
X027986Y012481*
X027984Y012479*
X027982Y012477*
X02798Y012475*
X027978Y012473*
X027977Y012471*
X027975Y012468*
X027974Y012466*
X027973Y012463*
X027972Y012461*
X027971Y012458*
X027971Y012455*
X027971Y012452*
X027971Y01245*
X027971Y012447*
X027971Y012444*
X027971Y012441*
X027972Y012438*
X027973Y012436*
X027974Y012433*
X027975Y012431*
X027977Y012428*
X027978Y012426*
X02798Y012424*
X027982Y012422*
X027984Y01242*
X027986Y012418*
X027988Y012416*
X027991Y012415*
X027993Y012414*
X027996Y012412*
X027998Y012411*
X028001Y012411*
X028004Y01241*
X028006Y01241*
X028009Y01241*
X028012*
X028015Y01241*
X028017Y01241*
X02802Y012411*
X028023Y012411*
X028025Y012412*
X028028Y012414*
X028031Y012415*
X028033Y012416*
X028035Y012418*
X028037Y01242*
X028039Y012422*
X028041Y012424*
X028043Y012426*
X028044Y012428*
X028046Y012431*
X028047Y012433*
X028048Y012436*
X028049Y012438*
X02805Y012441*
X02805Y012444*
X02805Y012447*
X028051Y01245*
X02279Y017311D02*
D01*
X022789Y017313*
X022789Y017316*
X022789Y017319*
X022788Y017322*
X022787Y017324*
X022786Y017327*
X022785Y017329*
X022783Y017332*
X022782Y017334*
X02278Y017336*
X022778Y017338*
X022776Y01734*
X022774Y017342*
X022772Y017344*
X02277Y017345*
X022767Y017346*
X022764Y017348*
X022762Y017349*
X022759Y017349*
X022756Y01735*
X022754Y01735*
X022751Y01735*
X022748*
X022745Y01735*
X022743Y01735*
X02274Y017349*
X022737Y017349*
X022735Y017348*
X022732Y017346*
X02273Y017345*
X022727Y017344*
X022725Y017342*
X022723Y01734*
X022721Y017338*
X022719Y017336*
X022717Y017334*
X022716Y017332*
X022714Y017329*
X022713Y017327*
X022712Y017324*
X022711Y017322*
X02271Y017319*
X02271Y017316*
X02271Y017313*
X02271Y017311*
X02271Y017308*
X02271Y017305*
X02271Y017302*
X022711Y017299*
X022712Y017297*
X022713Y017294*
X022714Y017292*
X022716Y017289*
X022717Y017287*
X022719Y017285*
X022721Y017283*
X022723Y017281*
X022725Y017279*
X022727Y017277*
X02273Y017276*
X022732Y017275*
X022735Y017273*
X022737Y017272*
X02274Y017272*
X022743Y017271*
X022745Y017271*
X022748Y017271*
X022751*
X022754Y017271*
X022756Y017271*
X022759Y017272*
X022762Y017272*
X022764Y017273*
X022767Y017275*
X02277Y017276*
X022772Y017277*
X022774Y017279*
X022776Y017281*
X022778Y017283*
X02278Y017285*
X022782Y017287*
X022783Y017289*
X022785Y017292*
X022786Y017294*
X022787Y017297*
X022788Y017299*
X022789Y017302*
X022789Y017305*
X022789Y017308*
X02279Y017311*
Y018689D02*
D01*
X022789Y018691*
X022789Y018694*
X022789Y018697*
X022788Y0187*
X022787Y018702*
X022786Y018705*
X022785Y018707*
X022783Y01871*
X022782Y018712*
X02278Y018714*
X022778Y018716*
X022776Y018718*
X022774Y01872*
X022772Y018722*
X02277Y018723*
X022767Y018724*
X022764Y018726*
X022762Y018727*
X022759Y018727*
X022756Y018728*
X022754Y018728*
X022751Y018728*
X022748*
X022745Y018728*
X022743Y018728*
X02274Y018727*
X022737Y018727*
X022735Y018726*
X022732Y018724*
X02273Y018723*
X022727Y018722*
X022725Y01872*
X022723Y018718*
X022721Y018716*
X022719Y018714*
X022717Y018712*
X022716Y01871*
X022714Y018707*
X022713Y018705*
X022712Y018702*
X022711Y0187*
X02271Y018697*
X02271Y018694*
X02271Y018691*
X02271Y018689*
X02271Y018686*
X02271Y018683*
X02271Y01868*
X022711Y018677*
X022712Y018675*
X022713Y018672*
X022714Y01867*
X022716Y018667*
X022717Y018665*
X022719Y018663*
X022721Y018661*
X022723Y018659*
X022725Y018657*
X022727Y018655*
X02273Y018654*
X022732Y018653*
X022735Y018651*
X022737Y01865*
X02274Y01865*
X022743Y018649*
X022745Y018649*
X022748Y018649*
X022751*
X022754Y018649*
X022756Y018649*
X022759Y01865*
X022762Y01865*
X022764Y018651*
X022767Y018653*
X02277Y018654*
X022772Y018655*
X022774Y018657*
X022776Y018659*
X022778Y018661*
X02278Y018663*
X022782Y018665*
X022783Y018667*
X022785Y01867*
X022786Y018672*
X022787Y018675*
X022788Y018677*
X022789Y01868*
X022789Y018683*
X022789Y018686*
X02279Y018689*
X016851Y02255D02*
D01*
X01685Y022552*
X01685Y022555*
X01685Y022558*
X016849Y022561*
X016848Y022563*
X016847Y022566*
X016846Y022568*
X016844Y022571*
X016843Y022573*
X016841Y022575*
X016839Y022577*
X016837Y022579*
X016835Y022581*
X016833Y022583*
X016831Y022584*
X016828Y022585*
X016825Y022587*
X016823Y022588*
X01682Y022588*
X016817Y022589*
X016815Y022589*
X016812Y022589*
X016809*
X016806Y022589*
X016804Y022589*
X016801Y022588*
X016798Y022588*
X016796Y022587*
X016793Y022585*
X016791Y022584*
X016788Y022583*
X016786Y022581*
X016784Y022579*
X016782Y022577*
X01678Y022575*
X016778Y022573*
X016777Y022571*
X016775Y022568*
X016774Y022566*
X016773Y022563*
X016772Y022561*
X016771Y022558*
X016771Y022555*
X016771Y022552*
X016771Y02255*
X016771Y022547*
X016771Y022544*
X016771Y022541*
X016772Y022538*
X016773Y022536*
X016774Y022533*
X016775Y022531*
X016777Y022528*
X016778Y022526*
X01678Y022524*
X016782Y022522*
X016784Y02252*
X016786Y022518*
X016788Y022516*
X016791Y022515*
X016793Y022514*
X016796Y022512*
X016798Y022511*
X016801Y022511*
X016804Y02251*
X016806Y02251*
X016809Y02251*
X016812*
X016815Y02251*
X016817Y02251*
X01682Y022511*
X016823Y022511*
X016825Y022512*
X016828Y022514*
X016831Y022515*
X016833Y022516*
X016835Y022518*
X016837Y02252*
X016839Y022522*
X016841Y022524*
X016843Y022526*
X016844Y022528*
X016846Y022531*
X016847Y022533*
X016848Y022536*
X016849Y022538*
X01685Y022541*
X01685Y022544*
X01685Y022547*
X016851Y02255*
X018229D02*
D01*
X018228Y022552*
X018228Y022555*
X018228Y022558*
X018227Y022561*
X018226Y022563*
X018225Y022566*
X018224Y022568*
X018222Y022571*
X018221Y022573*
X018219Y022575*
X018217Y022577*
X018215Y022579*
X018213Y022581*
X018211Y022583*
X018209Y022584*
X018206Y022585*
X018203Y022587*
X018201Y022588*
X018198Y022588*
X018195Y022589*
X018193Y022589*
X01819Y022589*
X018187*
X018184Y022589*
X018182Y022589*
X018179Y022588*
X018176Y022588*
X018174Y022587*
X018171Y022585*
X018169Y022584*
X018166Y022583*
X018164Y022581*
X018162Y022579*
X01816Y022577*
X018158Y022575*
X018156Y022573*
X018155Y022571*
X018153Y022568*
X018152Y022566*
X018151Y022563*
X01815Y022561*
X018149Y022558*
X018149Y022555*
X018149Y022552*
X018149Y02255*
X018149Y022547*
X018149Y022544*
X018149Y022541*
X01815Y022538*
X018151Y022536*
X018152Y022533*
X018153Y022531*
X018155Y022528*
X018156Y022526*
X018158Y022524*
X01816Y022522*
X018162Y02252*
X018164Y022518*
X018166Y022516*
X018169Y022515*
X018171Y022514*
X018174Y022512*
X018176Y022511*
X018179Y022511*
X018182Y02251*
X018184Y02251*
X018187Y02251*
X01819*
X018193Y02251*
X018195Y02251*
X018198Y022511*
X018201Y022511*
X018203Y022512*
X018206Y022514*
X018209Y022515*
X018211Y022516*
X018213Y022518*
X018215Y02252*
X018217Y022522*
X018219Y022524*
X018221Y022526*
X018222Y022528*
X018224Y022531*
X018225Y022533*
X018226Y022536*
X018227Y022538*
X018228Y022541*
X018228Y022544*
X018228Y022547*
X018229Y02255*
M02*